<svg width="37" height="48" viewBox="0 0 37 48" fill="none" xmlns="http://www.w3.org/2000/svg">
<g id="Feather" clip-path="url(#clip0_59_153)">
<path id="Vector" d="M18.5 48C28.7173 48 37 40.6618 37 31.6097C37 22.5576 28.7173 15.2195 18.5 15.2195C8.28273 15.2195 0 22.5576 0 31.6097C0 40.6618 8.28273 48 18.5 48Z" fill="#84F2D6"/>
<g id="Group">
<g id="Group_2">
<g id="Group_3">
<path id="Vector_2" d="M29.8312 20.1365C18.8614 20.1365 9.83852 27.6132 8.8824 37.1149C10.7051 34.8374 12.9379 32.646 15.7254 30.1267C15.9326 29.9374 16.2758 29.9336 16.4884 30.1201C16.701 30.3046 16.7042 30.6077 16.4959 30.796C16.0761 31.1747 15.6499 31.5676 15.2214 31.9654C14.9764 32.192 14.7369 32.4176 14.5016 32.6394C14.4585 32.6805 14.4153 32.7217 14.3721 32.7637C10.9274 36.0316 8.46476 38.876 6.67654 42.4088C6.55458 42.6497 6.67654 42.9327 6.94743 43.0407C7.01972 43.0694 7.09418 43.0828 7.16864 43.0828C7.37478 43.0828 7.57227 42.9776 7.66181 42.8008C8.29853 41.5435 9.03775 40.3771 9.86872 39.2422C17.4056 39.071 24.2659 35.3566 27.8617 29.446C27.9513 29.2978 27.9469 29.119 27.8498 28.9737C27.7516 28.8303 27.5757 28.7414 27.3858 28.7414H25.3872L28.9711 26.9267C29.0844 26.8693 29.1718 26.7766 29.2139 26.6676C29.9823 24.6885 30.3708 22.652 30.3708 20.6145C30.3708 20.3507 30.1291 20.1365 29.8312 20.1365Z" fill="black"/>
</g>
</g>
</g>
<g id="Feather Balls">
<circle id="Ellipse 9" cx="19.5" cy="11.5" r="4.5" fill="#84F2D6"/>
<ellipse id="Ellipse 8" cx="11.7167" cy="2.92683" rx="3.08333" ry="2.92683" fill="#84F2D6"/>
<circle id="Ellipse 12" cx="12" cy="8" r="2" fill="#84F2D6"/>
<circle id="Ellipse 10" cx="7.5" cy="14.5" r="4.5" fill="#84F2D6"/>
<ellipse id="Ellipse 8_2" cx="22.8167" cy="6.43904" rx="3.08333" ry="2.92683" fill="#84F2D6"/>
</g>
</g>
<defs>
<clipPath id="clip0_59_153">
<rect width="37" height="48" fill="white"/>
</clipPath>
</defs>
</svg>
