<svg width="37" height="47" viewBox="0 0 37 47" fill="none" xmlns="http://www.w3.org/2000/svg">
<g id="Performance" clip-path="url(#clip0_59_174)">
<path id="Vector" d="M18.5 46.1916C28.7173 46.1916 37 39.3589 37 30.9304C37 22.5019 28.7173 15.6692 18.5 15.6692C8.28273 15.6692 0 22.5019 0 30.9304C0 39.3589 8.28273 46.1916 18.5 46.1916Z" fill="#FC6B3F"/>
<g id="Group">
<g id="Group_2">
<path id="Vector_2" d="M17.7412 21.7146C14.8162 21.8531 12.0733 22.7907 9.88385 24.4004L13.2699 27.1936C14.5441 26.3185 16.0914 25.7896 17.7412 25.6653V21.7146Z" fill="black"/>
<path id="Vector_3" d="M12.1964 28.0786L8.81047 25.2854C6.85755 27.091 5.71952 29.3539 5.55056 31.7674H10.3399C10.4916 30.4062 11.1341 29.1297 12.1964 28.0786Z" fill="black"/>
<path id="Vector_4" d="M26.6601 31.7674H31.4494C31.2805 29.3539 30.1425 27.091 28.1895 25.2854L24.8036 28.0786C25.8659 29.1296 26.5084 30.4062 26.6601 31.7674Z" fill="black"/>
<path id="Vector_5" d="M26.6591 33.0193C26.5527 33.9834 26.2192 34.7875 25.8247 35.4325C26.2095 35.9221 26.5303 36.3358 26.7423 36.6105C27.3195 37.3588 27.1917 38.3194 26.4315 38.9465C26.2469 39.0988 26.0361 39.2215 25.8076 39.3122L26.5962 39.9627C26.7446 40.0852 26.9391 40.1464 27.1336 40.1464C27.3282 40.1464 27.5227 40.0852 27.671 39.9627C29.9436 38.0883 31.2687 35.6423 31.45 33.0193H26.6591Z" fill="black"/>
<path id="Vector_6" d="M10.341 33.0193H5.55C5.73135 35.6423 7.05645 38.0883 9.32892 39.9628C9.47734 40.0852 9.67185 40.1464 9.86635 40.1464C10.0609 40.1464 10.2554 40.0852 10.4038 39.9628L12.7061 38.0634C13.0029 37.8186 13.0029 37.4215 12.7061 37.1767C12.1053 36.681 10.5919 35.2934 10.341 33.0193Z" fill="black"/>
<path id="Vector_7" d="M27.1162 24.4004C24.9268 22.7907 22.1838 21.8531 19.2588 21.7146V25.6653C20.9086 25.7896 22.4559 26.3185 23.7301 27.1936L27.1162 24.4004Z" fill="black"/>
<path id="Vector_8" d="M20.186 31.013C19.2564 30.2461 17.7438 30.2461 16.8142 31.013C15.8846 31.7799 15.8846 33.0277 16.8142 33.7946C17.9886 34.7634 23.7602 37.8034 24.4145 38.1468C24.7145 38.3044 25.1069 38.2688 25.3584 38.0614C25.6099 37.8539 25.653 37.5302 25.462 37.2827C25.0456 36.743 21.3604 31.9818 20.186 31.013Z" fill="black"/>
</g>
</g>
<g id="Performance Balls">
<circle id="Ellipse 5" cx="13.5" cy="13.7036" r="4.5" fill="#FC6B3F"/>
<ellipse id="Ellipse 7" cx="19.7333" cy="1.49805" rx="1.23333" ry="1.09009" fill="#FC6B3F"/>
<ellipse id="Ellipse 11" cx="11.7167" cy="5.31335" rx="3.08333" ry="2.72522" fill="#FC6B3F"/>
<ellipse id="Ellipse 1" cx="28.3667" cy="17.8494" rx="2.46667" ry="2.18017" fill="#FC6B3F"/>
<circle id="Ellipse 6" cx="16.5" cy="8.70361" r="2.5" fill="#FC6B3F"/>
<ellipse id="Ellipse 6_2" cx="6.78333" cy="17.3043" rx="3.08333" ry="2.72521" fill="#FC6B3F"/>
</g>
</g>
<defs>
<clipPath id="clip0_59_174">
<rect width="37" height="45.988" fill="white" transform="translate(0 0.203613)"/>
</clipPath>
</defs>
</svg>
