<svg width="37" height="48" viewBox="0 0 37 48" fill="none" xmlns="http://www.w3.org/2000/svg">
<g id="Pillow" clip-path="url(#clip0_59_165)">
<path id="Vector" d="M18.5 48C28.7173 48 37 40.6618 37 31.6097C37 22.5576 28.7173 15.2195 18.5 15.2195C8.28273 15.2195 0 22.5576 0 31.6097C0 40.6618 8.28273 48 18.5 48Z" fill="#FFF6DA"/>
<g id="Group">
<path id="_x3C_Group_x3E__1_" d="M30.6226 36.4278C31.7303 32.7137 31.7251 30.5184 30.6112 26.8049C30.5556 26.6217 30.6149 26.4254 30.7831 26.2771C31.2129 25.8963 31.45 25.3895 31.45 24.8505C31.45 24.3121 31.2128 23.8054 30.7831 23.4246C29.9654 22.7008 28.5093 22.5715 27.4396 23.5369C27.2737 23.6859 27.0373 23.7476 26.8039 23.7056C21.8071 22.7489 15.3544 22.7393 10.3532 23.6793C10.0345 23.743 9.68925 23.6504 9.43581 23.4246C8.5755 22.6631 7.07421 22.6631 6.21688 23.4246C5.78715 23.8054 5.55 24.3121 5.55 24.8505C5.55 25.3895 5.78715 25.8963 6.23468 26.2922C6.39474 26.434 6.45848 26.6434 6.39995 26.839C5.26738 30.6393 5.26677 32.6158 6.39772 36.4134C6.44886 36.5861 6.3918 36.7725 6.21693 36.9275C5.3292 37.714 5.3292 38.9928 6.21693 39.7793C7.0565 40.525 8.37047 40.6561 9.58625 39.6559C9.72334 39.5429 9.91081 39.499 10.0961 39.5325C15.2245 40.5291 21.7876 40.5299 26.9205 39.5344C27.1102 39.4983 27.3102 39.5502 27.4466 39.6723L27.5666 39.7793C27.9964 40.1601 28.5685 40.3702 29.1768 40.3702C29.7844 40.3702 30.3565 40.1601 30.7862 39.7793C31.674 38.9928 31.674 37.714 30.7692 36.9124C30.627 36.7863 30.5707 36.6005 30.6226 36.4278Z" fill="black"/>
</g>
<g id="Pillow Balls">
<circle id="Ellipse 1" cx="13" cy="2" r="2" fill="#FFF6DA"/>
<circle id="Ellipse 2" cx="19.5" cy="7.5" r="2.5" fill="#FFF6DA"/>
<circle id="Ellipse 3" cx="11.5" cy="12.5" r="4.5" fill="#FFF6DA"/>
<ellipse id="Ellipse 4" cx="26.5167" cy="18.1463" rx="3.08333" ry="2.92683" fill="#FFF6DA"/>
</g>
</g>
<defs>
<clipPath id="clip0_59_165">
<rect width="37" height="48" fill="white"/>
</clipPath>
</defs>
</svg>
